<?xml version="1.0" standalone="no"?>
<!DOCTYPE svg PUBLIC "-//W3C//DTD SVG 20010904//EN"
 "http://www.w3.org/TR/2001/REC-SVG-20010904/DTD/svg10.dtd">
<svg version="1.0" xmlns="http://www.w3.org/2000/svg"
 width="2083.000000pt" height="930.000000pt" viewBox="0 0 2083.000000 930.000000"
 preserveAspectRatio="xMidYMid meet">

<g transform="translate(0.000000,930.000000) scale(0.100000,-0.100000)"
fill="#000000" stroke="none">
<path d="M5203 7278 c-205 -564 -373 -1028 -373 -1032 0 -3 165 -6 368 -6 288
0 380 -3 430 -15 273 -65 411 -312 329 -591 -26 -89 -926 -2565 -937 -2577 -3
-4 -177 -6 -387 -5 l-380 3 492 1350 492 1350 -290 3 c-194 1 -293 -1 -297 -8
-4 -6 -227 -616 -496 -1355 l-489 -1345 -382 0 c-300 0 -383 3 -382 13 0 6
418 1157 928 2557 510 1400 926 2546 925 2548 -4 6 -289 -91 -403 -138 -718
-295 -1340 -828 -1741 -1491 -294 -485 -462 -1006 -515 -1595 -27 -302 -14
-578 41 -911 122 -742 455 -1393 994 -1947 373 -383 806 -667 1310 -859 128
-49 413 -137 444 -137 6 0 433 1158 948 2573 l936 2572 752 3 c817 2 817 2
936 -54 179 -85 275 -287 231 -491 -17 -79 -804 -2256 -857 -2371 -53 -114
-154 -201 -297 -255 -57 -21 -72 -21 -608 -25 l-550 -3 -368 -1012 c-202 -557
-367 -1020 -367 -1029 0 -16 12 -18 101 -18 55 0 142 4 192 10 51 5 143 14
206 20 413 39 849 168 1248 369 604 303 1114 772 1469 1348 392 637 571 1335
535 2089 -27 552 -139 991 -371 1454 -438 871 -1171 1518 -2075 1830 -388 133
-692 187 -1110 197 l-260 6 -372 -1025z"/>
<path d="M11096 6211 c-15 -17 -16 -69 -5 -759 9 -570 9 -926 0 -1546 -8 -571
-8 -812 -1 -826 11 -20 23 -20 923 -20 697 0 916 3 925 12 17 17 17 299 0 316
-9 9 -181 12 -713 12 l-702 0 -6 213 c-15 494 -19 1332 -8 1936 11 600 11 645
-5 662 -16 17 -34 19 -204 19 -170 0 -188 -2 -204 -19z"/>
<path d="M13336 6211 c-15 -17 -16 -70 -5 -780 9 -587 9 -943 0 -1547 -8 -554
-8 -790 -1 -804 10 -19 21 -20 204 -20 164 0 196 2 207 16 10 13 11 157 2 803
-7 558 -7 1012 0 1556 10 746 10 768 -8 781 -14 11 -62 14 -200 14 -165 0
-183 -2 -199 -19z"/>
<path d="M14365 6216 c-18 -13 -18 -38 -6 -795 9 -604 9 -958 0 -1556 -10
-628 -10 -777 1 -790 10 -12 44 -15 205 -15 170 0 194 2 207 18 14 15 14 91 3
682 -6 366 -10 668 -8 673 2 4 323 7 712 7 536 0 710 3 719 12 8 8 12 58 12
160 0 135 -2 148 -19 158 -13 7 -258 10 -726 10 l-707 0 6 48 c3 26 8 241 11
477 3 237 8 465 11 508 l6 77 739 0 c720 0 739 0 749 19 5 11 10 80 10 154 0
117 -2 136 -18 150 -17 16 -98 17 -953 17 -770 0 -938 -2 -954 -14z"/>
<path d="M16738 6213 c-14 -16 -14 -98 -4 -778 10 -683 8 -1202 -7 -2063 -5
-242 -3 -284 9 -297 14 -13 141 -15 1004 -15 l989 0 15 22 c23 32 23 264 0
296 l-15 22 -783 0 -783 0 -7 338 c-3 185 -9 451 -12 590 l-7 252 721 0 c642
0 722 2 736 16 23 23 23 285 0 308 -14 14 -94 16 -736 16 l-721 0 6 203 c4
111 10 329 13 485 l7 282 768 0 c749 0 769 0 779 19 5 11 10 80 10 154 0 117
-2 136 -18 150 -17 16 -100 17 -984 17 -906 0 -966 -1 -980 -17z"/>
<path d="M7361 5748 c-5 -13 -187 -513 -406 -1113 -218 -600 -399 -1093 -402
-1097 -2 -5 130 -8 294 -8 l298 0 404 1108 c221 609 403 1112 402 1117 -1 6
-107 11 -291 13 l-290 2 -9 -22z"/>
</g>
</svg>
